<svg width="24" height="24" viewBox="0 0 24 24" fill="none" xmlns="http://www.w3.org/2000/svg">
<rect width="24" height="24" fill="black"/>
<path fill-rule="evenodd" clip-rule="evenodd" d="M21.808 6.59296C20.8792 7.10054 19.7771 7.13336 18.5019 6.69171C16.7835 6.09741 16.018 4.66968 16.0003 3.20346C15.9942 3.22425 15.991 3.24597 15.991 3.26801L15.976 11.261C15.9755 11.2935 15.9814 11.3258 15.9935 11.356C16.0055 11.3862 16.0233 11.4137 16.046 11.437C16.0922 11.4841 16.155 11.5114 16.221 11.513C17.599 11.54 18.841 11.528 19.949 11.477C20.846 11.435 21.792 10.637 21.796 9.64701C21.8015 8.64248 21.8055 7.6243 21.808 6.59296ZM14.8557 1.99815C14.839 1.99132 14.8211 1.98788 14.803 1.98801H9.181C9.14467 1.98801 9.10982 2.00244 9.08413 2.02814C9.05843 2.05383 9.044 2.08868 9.044 2.12501V9.93301C9.0438 10.3536 9.20986 10.7573 9.506 11.056C9.65182 11.2032 9.82533 11.32 10.0165 11.3999C10.2077 11.4797 10.4128 11.5208 10.62 11.521H13.364C13.5714 11.521 13.7766 11.4799 13.968 11.4C14.1594 11.3202 14.3331 11.2033 14.479 11.056C14.775 10.758 14.941 10.354 14.941 9.93301V2.12501C14.941 2.10693 14.9374 2.08904 14.9305 2.07235C14.9235 2.05566 14.9133 2.04052 14.9005 2.02778C14.8877 2.01505 14.8725 2.00498 14.8557 1.99815ZM3.328 3.03801C3.065 3.03801 2.82 3.10401 2.59 3.23501H2.588C2.321 3.38301 2.188 3.62401 2.188 3.95801C2.185 5.46601 2.179 7.17601 2.169 9.08801C2.162 10.371 2.74 11.443 4.143 11.488C5.34932 11.525 6.55638 11.531 7.763 11.506C7.82622 11.505 7.8865 11.4791 7.93083 11.434C7.97517 11.3889 8.00001 11.3282 8 11.265L7.998 3.25701C7.998 3.22817 7.9923 3.19961 7.98124 3.17297C7.97017 3.14634 7.95395 3.12215 7.9335 3.1018C7.91306 3.08145 7.8888 3.06534 7.86212 3.05439C7.83543 3.04345 7.80684 3.03788 7.778 3.03801H3.328ZM14.948 16.466C15.319 16.458 15.505 16.641 15.505 17.011V17.679C15.505 18.067 15.309 18.261 14.919 18.261L9.566 18.257C9.424 18.257 9.283 18.229 9.151 18.174C8.95275 18.0908 8.78354 17.9507 8.66468 17.7716C8.54582 17.5924 8.4826 17.382 8.483 17.167L8.506 13.009C8.508 12.848 8.428 12.766 8.268 12.764C7.022 12.735 5.843 12.738 4.733 12.775C3.02 12.832 2.165 13.56 2.17 14.96C2.175 16.438 2.178 17.914 2.178 19.385C2.178 20.906 2.856 22.007 4.514 22C9.586 21.983 14.58 21.981 19.496 21.996C20.831 22 21.796 21.121 21.796 19.696C21.7953 18.3139 21.8063 16.9319 21.829 15.55C21.855 14.059 21.265 12.812 19.644 12.782C16.9169 12.7379 14.1892 12.7346 11.462 12.772C10.13 12.794 10.06 14.132 10.167 15.172C10.253 15.998 10.783 16.488 11.621 16.492C12.746 16.494 13.855 16.486 14.948 16.466Z" fill="white"/>
<path d="M21.972 2.68301L21.922 3.42601C21.362 4.67601 20.502 5.09801 19.343 4.69301C17.125 3.91901 18.227 0.215007 20.721 1.12501C21.36 1.36001 21.778 1.87901 21.972 2.68301Z" fill="white"/>
</svg>
