<svg width="24" height="24" viewBox="0 0 24 24" fill="none" xmlns="http://www.w3.org/2000/svg">
<rect width="24" height="24" fill="black"/>
<path d="M1.422 11.8C5.025 10.102 6.935 6.79 6.525 2.806C6.52068 2.76435 6.52833 2.72234 6.54705 2.68489C6.56578 2.64744 6.5948 2.61611 6.63072 2.59459C6.66663 2.57306 6.70794 2.56223 6.74979 2.56336C6.79165 2.5645 6.83231 2.57756 6.867 2.601C10.272 4.881 13.709 4.87 17.178 2.568C17.2164 2.54262 17.2611 2.52838 17.3071 2.52686C17.3531 2.52534 17.3986 2.5366 17.4386 2.55939C17.4786 2.58218 17.5115 2.61561 17.5336 2.65597C17.5558 2.69632 17.5663 2.74203 17.564 2.788C17.342 6.876 19.074 9.821 22.764 11.624C22.8059 11.6443 22.8412 11.676 22.866 11.7154C22.8908 11.7548 22.904 11.8003 22.9042 11.8469C22.9044 11.8934 22.8916 11.9391 22.8672 11.9787C22.8427 12.0183 22.8077 12.0503 22.766 12.071C19.112 13.887 17.424 16.885 17.703 21.064C17.7052 21.1021 17.6968 21.1402 17.6787 21.1738C17.6605 21.2074 17.6334 21.2353 17.6003 21.2544C17.5672 21.2735 17.5294 21.283 17.4912 21.2819C17.453 21.2808 17.4159 21.269 17.384 21.248C13.942 18.954 10.484 18.978 7.009 21.318C6.97625 21.34 6.93799 21.3525 6.89854 21.354C6.85909 21.3554 6.82001 21.3459 6.78571 21.3263C6.75141 21.3068 6.72325 21.278 6.70439 21.2434C6.68554 21.2087 6.67675 21.1694 6.679 21.13C6.942 17.006 5.189 14.025 1.419 12.185C1.38267 12.1679 1.35203 12.1407 1.33075 12.1067C1.30947 12.0726 1.29845 12.0331 1.299 11.993C1.2993 11.9524 1.31098 11.9127 1.33273 11.8784C1.35447 11.8441 1.3854 11.8166 1.422 11.799V11.8ZM13.507 10.583C13.4812 10.5714 13.4606 10.5508 13.449 10.525L12.2 7.853C12.1906 7.83333 12.1758 7.81673 12.1573 7.80515C12.1389 7.79357 12.1175 7.78747 12.0957 7.78758C12.0739 7.78768 12.0526 7.79398 12.0342 7.80574C12.0158 7.8175 12.0012 7.83424 11.992 7.854L10.794 10.554C10.7823 10.5794 10.7616 10.5997 10.736 10.611L8.064 11.861C8.049 11.8677 8.03563 11.8776 8.02482 11.89C8.014 11.9024 8.00599 11.917 8.00134 11.9327C7.99668 11.9485 7.99549 11.9651 7.99785 11.9814C8.00021 11.9976 8.00606 12.0132 8.015 12.027C8.02726 12.0455 8.04463 12.0601 8.065 12.069L10.763 13.267C10.7888 13.2785 10.8095 13.2992 10.821 13.325L12.071 15.997C12.0802 16.0168 12.0949 16.0337 12.1133 16.0455C12.1317 16.0574 12.1531 16.0638 12.175 16.064C12.1972 16.0641 12.219 16.0578 12.2377 16.0457C12.2563 16.0336 12.271 16.0163 12.28 15.996L13.478 13.298C13.4893 13.2724 13.5096 13.2517 13.535 13.24L16.207 11.99C16.227 11.9808 16.2439 11.9661 16.2558 11.9476C16.2677 11.929 16.274 11.9075 16.274 11.8855C16.274 11.8635 16.2677 11.842 16.2558 11.8234C16.2439 11.8049 16.227 11.7902 16.207 11.781L13.507 10.583Z" fill="white"/>
<path d="M23.972 5.683L23.922 6.426C23.362 7.676 22.502 8.098 21.343 7.693C19.125 6.919 20.227 3.215 22.721 4.125C23.36 4.36 23.778 4.879 23.972 5.683Z" fill="white"/>
</svg>
