<svg width="24" height="24" viewBox="0 0 24 24" fill="none" xmlns="http://www.w3.org/2000/svg">
<rect width="24" height="24" fill="black"/>
<path d="M22.172 4.31C22.175 11.651 19.596 19.462 12.284 22.14C12.1511 22.1907 12.005 22.1957 11.869 22.154C4.477 19.887 1.81 11.305 1.84 4.354C1.8392 4.25008 1.87789 4.14974 1.94824 4.07325C2.0186 3.99677 2.11538 3.94986 2.219 3.942C5.50024 3.64751 8.73096 2.93853 11.834 1.832C11.9507 1.792 12.0773 1.792 12.194 1.832C15.386 2.97 18.597 3.671 21.827 3.935C21.9209 3.94344 22.0084 3.98649 22.0723 4.05579C22.1362 4.1251 22.1711 4.21571 22.172 4.31ZM10.956 18.403C11.487 18.661 11.876 18.909 12.488 18.661C17.224 16.733 18.825 11.501 18.792 6.761C18.792 6.681 18.752 6.639 18.672 6.634C16.532 6.44723 14.4238 5.99268 12.397 5.281C12.143 5.19381 11.8671 5.19522 11.614 5.285C9.61858 5.98823 7.542 6.43547 5.434 6.616C5.298 6.628 5.229 6.703 5.226 6.842C5.179 11.367 6.714 16.322 10.956 18.403Z" fill="white"/>
<path d="M12.12 6.888C13.772 7.347 15.249 7.808 16.973 7.903C17.107 7.913 17.172 7.985 17.17 8.118C17.079 11.916 15.853 15.718 12.153 17.118C12.0565 17.1535 11.9505 17.1535 11.854 17.118C8.169 15.714 6.892 11.858 6.856 8.133C6.856 7.99 6.926 7.913 7.066 7.903C8.6 7.806 10.154 7.474 11.731 6.907C11.8556 6.86086 11.9915 6.85423 12.12 6.888Z" fill="white"/>
<path d="M23 3.5255L22.8954 5.06555C21.7243 7.65647 19.9257 8.53116 17.5019 7.6917C12.8633 6.08741 15.1679 -1.59002 20.3837 0.296175C21.7201 0.783268 22.5943 1.85902 23 3.5255Z" fill="black"/>
<path d="M20.972 3.68301L20.922 4.42601C20.362 5.67601 19.502 6.09801 18.343 5.69301C16.125 4.91901 17.227 1.21501 19.721 2.12501C20.36 2.36001 20.778 2.87901 20.972 3.68301Z" fill="white"/>
</svg>
