<svg width="24" height="24" viewBox="0 0 24 24" fill="none" xmlns="http://www.w3.org/2000/svg">
<rect width="24" height="24" fill="black"/>
<path d="M10.3684 18.3021C11.4599 18.3021 16.4528 21.5128 17.0323 20.9291C17.6117 20.3453 12.3965 14.7995 11.5273 14.7995C10.6581 14.7995 9.03437 15.2069 8.63002 14.7995C8.05055 14.2158 6.89162 8.9619 7.18135 8.08622C8.05055 7.79437 13.2657 8.96189 13.8452 9.54565C14.2496 9.95301 13.8452 12.1726 13.8452 13.0482C13.8452 13.9239 19.3501 18.8859 19.9296 18.3021C20.509 17.7184 17.322 12.3965 17.322 11.2969C17.322 10.1973 19.6398 9.54567 19.6398 8.08626C19.6398 5.67877 4.57376 3.12427 3.41483 4.2918C1.99045 5.82092 4.50186 20.929 6.89162 20.929C7.98313 20.929 9.27691 18.3021 10.3684 18.3021Z" fill="white"/>
<path d="M22.7461 6H19.2539C19.0401 6 18.9224 5.75205 19.0578 5.58691L20.5853 3.72363H19.2539C19.0401 3.72363 18.9224 3.47568 19.0578 3.31054L20.9215 1.03711C20.9621 0.987631 21.0379 0.987631 21.0785 1.03711L22.9422 3.31054C23.0776 3.47568 22.9599 3.72363 22.7461 3.72363H21.4147L22.9422 5.58691C23.0776 5.75205 22.9599 6 22.7461 6Z" fill="white"/>
</svg>
