<svg width="24" height="24" viewBox="0 0 24 24" fill="none" xmlns="http://www.w3.org/2000/svg">
<rect width="24" height="24" fill="black"/>
<path d="M15.409 8.235L22.181 11.546C22.2311 11.5702 22.2734 11.6081 22.3029 11.6552C22.3325 11.7023 22.3482 11.7569 22.3482 11.8125C22.3482 11.8681 22.3325 11.9227 22.3029 11.9698C22.2734 12.0169 22.2311 12.0548 22.181 12.079L15.408 15.389C15.3495 15.4182 15.3024 15.4661 15.274 15.525L11.962 22.297C11.9377 22.3468 11.8998 22.3888 11.8528 22.4182C11.8058 22.4476 11.7514 22.4632 11.696 22.4632C11.6405 22.4632 11.5862 22.4476 11.5392 22.4182C11.4922 22.3888 11.4543 22.3468 11.43 22.297L8.118 15.525C8.08915 15.4663 8.04167 15.4189 7.983 15.39L1.211 12.079C1.1609 12.0548 1.11864 12.0169 1.08907 11.9698C1.0595 11.9227 1.04382 11.8681 1.04382 11.8125C1.04382 11.7569 1.0595 11.7023 1.08907 11.6552C1.11864 11.6081 1.1609 11.5702 1.211 11.546L7.983 8.235C8.04167 8.20615 8.08915 8.15868 8.118 8.1L11.43 1.327C11.4546 1.27748 11.4925 1.23581 11.5395 1.20668C11.5865 1.17754 11.6407 1.16211 11.696 1.16211C11.7513 1.16211 11.8055 1.17754 11.8525 1.20668C11.8995 1.23581 11.9374 1.27748 11.962 1.327L15.274 8.1C15.3029 8.15868 15.3503 8.20615 15.409 8.235ZM10.192 10.909C9.70625 11.1775 9.19509 11.3973 8.666 11.565C8.62912 11.5757 8.59659 11.5979 8.57306 11.6282C8.54953 11.6586 8.53621 11.6956 8.535 11.734C8.52993 11.7909 8.53744 11.8483 8.557 11.902C8.57464 11.9516 8.60391 11.9963 8.64235 12.0323C8.6808 12.0684 8.72731 12.0946 8.778 12.109C9.198 12.231 9.616 12.399 10.031 12.615C10.848 13.035 11.152 13.999 11.43 14.797C11.565 15.185 11.721 15.194 11.899 14.824C12.277 14.017 12.442 13.174 13.294 12.667C13.726 12.407 14.184 12.211 14.67 12.079C14.76 12.054 14.805 11.995 14.805 11.902V11.73C14.8049 11.6917 14.7924 11.6546 14.7693 11.6241C14.7462 11.5936 14.7138 11.5714 14.677 11.561C14.1746 11.4039 13.6897 11.1955 13.23 10.939C12.506 10.534 12.24 9.547 11.914 8.824C11.746 8.454 11.589 8.459 11.441 8.839C11.171 9.532 10.871 10.526 10.192 10.909Z" fill="white"/>
<path d="M18.6861 7.38127L18.6861 6.13898C18.6861 5.96812 18.539 5.82961 18.3576 5.82961H17.329C17.0667 5.82961 16.9102 5.55423 17.0557 5.34864L19.4534 2.27552C19.7134 1.90816 20.2866 1.90816 20.5466 2.27552L22.9443 5.34864C23.0898 5.55423 22.9333 5.82961 22.671 5.82961H21.6424C21.461 5.82961 21.3139 5.96812 21.3139 6.13898L21.3139 7.38127C21.3139 7.72298 21.0198 8 20.6569 8H19.3431C18.9802 8 18.6861 7.72298 18.6861 7.38127Z" fill="white"/>
</svg>
