<svg width="24" height="24" viewBox="0 0 24 24" fill="none" xmlns="http://www.w3.org/2000/svg">
<rect width="24" height="24" fill="black"/>
<path d="M11.6904 1.16C11.7455 1.16008 11.7998 1.17586 11.8466 1.20493C11.8935 1.23405 11.9315 1.27563 11.956 1.32504L15.2675 8.0975C15.2964 8.15613 15.3437 8.20342 15.4023 8.23227L22.1728 11.5438C22.2228 11.568 22.2654 11.6052 22.2949 11.6522C22.3244 11.6992 22.3397 11.7539 22.3398 11.8094C22.3398 11.8651 22.3244 11.9205 22.2949 11.9676C22.2653 12.0146 22.2228 12.0518 22.1728 12.076L15.4013 15.3866C15.3429 15.4158 15.2959 15.4634 15.2675 15.5223L11.956 22.2938C11.9317 22.3436 11.8937 22.3855 11.8466 22.4149C11.7997 22.4442 11.7457 22.4597 11.6904 22.4598C11.635 22.4598 11.5802 22.4443 11.5332 22.4149C11.4862 22.3855 11.4481 22.3436 11.4238 22.2938L8.11227 15.5223C8.08341 15.4637 8.03613 15.4164 7.9775 15.3875L1.20699 12.076C1.15708 12.0518 1.11443 12.0146 1.08492 11.9676C1.05536 11.9205 1.04 11.8651 1.04 11.8094C1.04009 11.7539 1.05544 11.6992 1.08492 11.6522C1.11443 11.6052 1.15708 11.568 1.20699 11.5438L7.9775 8.23227C8.03612 8.20344 8.08341 8.15611 8.11227 8.0975L11.4238 1.32504C11.4483 1.27568 11.4864 1.23404 11.5332 1.20493C11.5802 1.1758 11.6351 1.16 11.6904 1.16ZM11.6904 13.7723L8.60738 10.1288V12.6512L11.6904 16.2938L14.7724 12.6512V10.1288L11.6904 13.7723ZM9.72848 9.00766L11.6904 11.5301L13.6523 9.00766L11.6904 6.4852L9.72848 9.00766Z" fill="white"/>
<path d="M17.168 5.689L18.308 5.617C18.3385 5.61495 18.3691 5.61903 18.398 5.629C18.4421 5.64347 18.4804 5.67165 18.5074 5.70942C18.5344 5.74719 18.5486 5.79259 18.548 5.839L18.555 7.252C18.555 7.465 18.663 7.572 18.878 7.575L20.266 7.586C20.3281 7.58651 20.3897 7.57427 20.4469 7.55003C20.5041 7.52578 20.5557 7.49006 20.5986 7.44507C20.6414 7.40007 20.6745 7.34676 20.6959 7.28844C20.7174 7.23012 20.7266 7.16802 20.723 7.106L20.656 5.985C20.6523 5.93103 20.6612 5.87695 20.682 5.827C20.7146 5.75218 20.7716 5.69065 20.8437 5.6525C20.9159 5.61434 20.9988 5.60183 21.079 5.617C21.4546 5.69198 21.8403 5.70112 22.219 5.644C22.2942 5.63231 22.3627 5.59415 22.4122 5.53639C22.4617 5.47863 22.4889 5.40507 22.489 5.329L22.497 3.727C22.499 3.525 22.399 3.425 22.197 3.427L20.982 3.435C20.799 3.437 20.707 3.347 20.704 3.165L20.686 1.777C20.6847 1.6922 20.6501 1.61133 20.5896 1.55183C20.5292 1.49233 20.4478 1.45899 20.363 1.459L18.871 1.447C18.663 1.447 18.558 1.55 18.555 1.755L18.544 3.236C18.544 3.379 18.472 3.447 18.327 3.442L17.071 3.409C16.843 3.401 16.728 3.512 16.726 3.742L16.714 5.257C16.712 5.562 16.863 5.706 17.168 5.689Z" fill="white"/>
</svg>
