<svg width="24" height="24" viewBox="0 0 24 24" fill="none" xmlns="http://www.w3.org/2000/svg">
<rect width="24" height="24" fill="black"/>
<path fill-rule="evenodd" clip-rule="evenodd" d="M19.071 19.071C20.0189 18.1468 20.7739 17.0436 21.2921 15.8254C21.8103 14.6071 22.0815 13.2981 22.0899 11.9743C22.0983 10.6504 21.8437 9.33805 21.341 8.11334C20.8382 6.88864 20.0973 5.77595 19.1612 4.83982C18.2251 3.90369 17.1124 3.16277 15.8877 2.66002C14.6629 2.15727 13.3506 1.9027 12.0267 1.91109C10.7029 1.91948 9.39388 2.19065 8.17564 2.70888C6.9574 3.22711 5.85419 3.98208 4.93 4.93C3.10842 6.81602 2.10048 9.34204 2.12326 11.964C2.14605 14.586 3.19773 17.0941 5.05182 18.9482C6.9059 20.8023 9.41402 21.854 12.036 21.8767C14.658 21.8995 17.184 20.8916 19.07 19.07L19.071 19.071ZM19.229 12.801C19.0604 13.2269 18.7681 13.5926 18.3896 13.8507C18.0112 14.1088 17.5641 14.2475 17.106 14.249C16.435 14.249 15.269 13.597 14.321 12.985L13.219 12.509C13.1264 12.4689 13.0238 12.4579 12.9248 12.4772C12.8257 12.4965 12.7348 12.5454 12.6641 12.6173C12.5933 12.6893 12.546 12.781 12.5283 12.8803C12.5106 12.9797 12.5234 13.0821 12.565 13.174L13.021 14.184H13.01C13.634 15.144 14.317 16.351 14.317 17.037C14.3149 17.5419 14.1465 18.0321 13.8377 18.4316C13.5289 18.8311 13.0971 19.1177 12.609 19.247C14.2885 19.1061 15.8669 18.3863 17.0744 17.2105C18.2818 16.0348 19.0435 14.4761 19.229 12.801ZM19.205 11.004C18.9898 9.44387 18.2738 7.99582 17.1646 6.8777C16.0555 5.75958 14.6133 5.03185 13.055 4.804C13.4383 5.00909 13.7585 5.3149 13.9808 5.68848C14.2032 6.06206 14.3195 6.48924 14.317 6.924C14.317 7.642 13.626 8.907 12.998 9.908L12.643 10.645C12.5984 10.7378 12.5836 10.8422 12.6006 10.9438C12.6176 11.0453 12.6655 11.1392 12.7378 11.2125C12.8102 11.2858 12.9034 11.335 13.0047 11.3533C13.106 11.3717 13.2106 11.3583 13.304 11.315L14.53 10.745C15.435 10.175 16.484 9.615 17.106 9.615C17.5534 9.61631 17.9906 9.74866 18.3636 9.99568C18.7367 10.2427 19.0292 10.5936 19.205 11.005V11.004ZM10.945 4.804C9.38686 5.03231 7.94491 5.76019 6.83589 6.87823C5.72687 7.99627 5.01069 9.44406 4.795 11.004C4.9709 10.5924 5.26355 10.2414 5.63677 9.99441C6.01 9.74737 6.44743 9.61512 6.895 9.614C7.522 9.614 8.583 10.185 9.494 10.76L10.684 11.322C10.7767 11.3657 10.8805 11.3798 10.9815 11.3626C11.0825 11.3453 11.1757 11.2974 11.2486 11.2254C11.3215 11.1534 11.3705 11.0607 11.389 10.96C11.4075 10.8592 11.3946 10.7552 11.352 10.662L11.022 9.939C10.389 8.934 9.683 7.649 9.683 6.924C9.683 6 10.196 5.198 10.945 4.804ZM11.391 19.247C9.7116 19.1059 8.13331 18.386 6.92585 17.2103C5.7184 16.0346 4.95672 14.476 4.771 12.801C4.93962 13.2271 5.23214 13.5928 5.61078 13.851C5.98941 14.1091 6.43675 14.2477 6.895 14.249C7.545 14.249 8.66 13.637 9.591 13.042L10.754 12.521C10.8458 12.4799 10.9479 12.4674 11.0469 12.4853C11.1458 12.5031 11.2372 12.5503 11.3089 12.6209C11.3806 12.6914 11.4294 12.7819 11.4488 12.8806C11.4683 12.9793 11.4576 13.0815 11.418 13.174L10.985 14.184H10.99C10.366 15.144 9.683 16.351 9.683 17.037C9.683 18.094 10.407 18.983 11.391 19.247Z" fill="white"/>
</svg>
