<svg width="24" height="24" viewBox="0 0 24 24" fill="none" xmlns="http://www.w3.org/2000/svg">
<rect width="24" height="24" fill="black"/>
<path d="M11.6904 1.16C11.7455 1.16008 11.7998 1.17586 11.8466 1.20493C11.8935 1.23405 11.9315 1.27563 11.956 1.32504L15.2675 8.0975C15.2964 8.15613 15.3437 8.20342 15.4023 8.23227L22.1728 11.5438C22.2228 11.568 22.2654 11.6052 22.2949 11.6522C22.3244 11.6992 22.3397 11.7539 22.3398 11.8094C22.3398 11.8651 22.3244 11.9205 22.2949 11.9676C22.2653 12.0146 22.2228 12.0518 22.1728 12.076L15.4013 15.3866C15.3429 15.4158 15.2959 15.4634 15.2675 15.5223L11.956 22.2938C11.9317 22.3436 11.8937 22.3855 11.8466 22.4149C11.7997 22.4442 11.7457 22.4597 11.6904 22.4598C11.635 22.4598 11.5802 22.4443 11.5332 22.4149C11.4862 22.3855 11.4481 22.3436 11.4238 22.2938L8.11227 15.5223C8.08341 15.4637 8.03613 15.4164 7.9775 15.3875L1.20699 12.076C1.15708 12.0518 1.11443 12.0146 1.08492 11.9676C1.05536 11.9205 1.04 11.8651 1.04 11.8094C1.04009 11.7539 1.05544 11.6992 1.08492 11.6522C1.11443 11.6052 1.15708 11.568 1.20699 11.5438L7.9775 8.23227C8.03612 8.20344 8.08341 8.15611 8.11227 8.0975L11.4238 1.32504C11.4483 1.27568 11.4864 1.23404 11.5332 1.20493C11.5802 1.1758 11.6351 1.16 11.6904 1.16ZM11.6904 13.7723L8.60738 10.1288V12.6512L11.6904 16.2938L14.7724 12.6512V10.1288L11.6904 13.7723ZM9.72848 9.00766L11.6904 11.5301L13.6523 9.00766L11.6904 6.4852L9.72848 9.00766Z" fill="white"/>
</svg>
