<svg width="24" height="24" viewBox="0 0 24 24" fill="none" xmlns="http://www.w3.org/2000/svg">
<rect width="24" height="24" fill="black"/>
<path d="M14.803 1.98799C14.8211 1.98786 14.839 1.99131 14.8557 1.99814C14.8725 2.00496 14.8877 2.01503 14.9005 2.02777C14.9133 2.0405 14.9235 2.05565 14.9305 2.07234C14.9374 2.08902 14.941 2.10692 14.941 2.12499V9.93299C14.941 10.354 14.775 10.758 14.479 11.056C14.3331 11.2033 14.1594 11.3202 13.968 11.4C13.7766 11.4798 13.5714 11.521 13.364 11.521H10.62C10.4128 11.5208 10.2077 11.4796 10.0165 11.3998C9.82533 11.32 9.65182 11.2032 9.506 11.056C9.20986 10.7573 9.0438 10.3536 9.044 9.93299V2.12499C9.044 2.08866 9.05843 2.05381 9.08413 2.02812C9.10982 2.00243 9.14467 1.98799 9.181 1.98799H14.803ZM2.59 3.23499C2.82 3.10399 3.065 3.038 3.328 3.038H7.778C7.80684 3.03786 7.83543 3.04343 7.86212 3.05438C7.8888 3.06532 7.91306 3.08143 7.9335 3.10178C7.95395 3.12213 7.97017 3.14632 7.98124 3.17296C7.9923 3.19959 7.998 3.22815 7.998 3.25699L8 11.265C8.00001 11.3282 7.97517 11.3889 7.93083 11.434C7.8865 11.4791 7.82622 11.5049 7.763 11.506C6.55638 11.5309 5.34932 11.5249 4.143 11.488C2.74 11.443 2.162 10.371 2.169 9.088C2.179 7.17599 2.185 5.46599 2.188 3.95799C2.188 3.62399 2.321 3.38299 2.588 3.23499H2.59ZM21.796 9.647C21.792 10.637 20.846 11.435 19.949 11.477C18.841 11.528 17.599 11.54 16.221 11.513C16.155 11.5114 16.0922 11.4841 16.046 11.437C16.0233 11.4137 16.0055 11.3862 15.9935 11.356C15.9814 11.3258 15.9755 11.2935 15.976 11.261L15.991 3.26799C15.9911 3.20824 16.0144 3.15086 16.056 3.108C16.0765 3.08681 16.1011 3.06996 16.1282 3.05845C16.1553 3.04694 16.1845 3.04101 16.214 3.04099L20.791 3.026C20.9248 3.0256 21.0574 3.05161 21.1811 3.10255C21.3048 3.15348 21.4173 3.22833 21.5121 3.3228C21.6068 3.41728 21.682 3.52953 21.7333 3.65311C21.7846 3.7767 21.811 3.90919 21.811 4.043C21.811 5.954 21.806 7.823 21.796 9.647ZM15.505 17.011C15.505 16.641 15.319 16.458 14.948 16.466C13.855 16.486 12.746 16.494 11.621 16.492C10.783 16.488 10.253 15.998 10.167 15.172C10.06 14.132 10.13 12.794 11.462 12.772C14.1892 12.7346 16.9169 12.7379 19.644 12.782C21.265 12.812 21.855 14.059 21.829 15.55C21.8063 16.9319 21.7953 18.3139 21.796 19.696C21.796 21.121 20.831 22 19.496 21.996C14.58 21.981 9.586 21.983 4.514 22C2.856 22.007 2.178 20.906 2.178 19.385C2.178 17.914 2.175 16.438 2.17 14.96C2.165 13.56 3.02 12.832 4.733 12.775C5.843 12.738 7.022 12.735 8.268 12.764C8.428 12.766 8.508 12.848 8.506 13.009L8.483 17.167C8.4826 17.382 8.54582 17.5924 8.66468 17.7715C8.78354 17.9507 8.95275 18.0907 9.151 18.174C9.283 18.229 9.424 18.257 9.566 18.257L14.919 18.261C15.309 18.261 15.505 18.067 15.505 17.679V17.011Z" fill="white"/>
</svg>
