<svg width="24" height="24" viewBox="0 0 24 24" fill="none" xmlns="http://www.w3.org/2000/svg">
<rect width="24" height="24" fill="black"/>
<path d="M17.28 21.551C14.022 19.125 10.012 19.248 6.69 21.475C6.65369 21.4996 6.61117 21.5135 6.56733 21.515C6.5235 21.5165 6.48012 21.5056 6.4422 21.4836C6.40428 21.4615 6.37335 21.4292 6.35297 21.3904C6.33259 21.3515 6.32359 21.3077 6.327 21.264C6.611 17.06 4.864 14.026 1.085 12.162C1.04514 12.1418 1.01172 12.1108 0.988509 12.0726C0.9653 12.0344 0.953223 11.9905 0.953639 11.9458C0.954055 11.9011 0.966947 11.8574 0.990863 11.8196C1.01478 11.7818 1.04877 11.7515 1.089 11.732C4.874 9.916 6.644 6.889 6.401 2.652C6.3996 2.61486 6.40838 2.57804 6.42639 2.54553C6.44439 2.51301 6.47094 2.48603 6.50316 2.4675C6.53538 2.44897 6.57204 2.4396 6.6092 2.44039C6.64636 2.44118 6.6826 2.45211 6.714 2.472C10.306 4.84 13.841 4.855 17.32 2.516C17.3538 2.4926 17.3937 2.47941 17.4348 2.478C17.476 2.47658 17.5166 2.48699 17.552 2.508C17.5879 2.52876 17.6174 2.55913 17.637 2.5957C17.6566 2.63227 17.6656 2.67358 17.663 2.715C17.368 6.92 19.113 9.962 22.895 11.841C22.9348 11.8613 22.9683 11.8923 22.9918 11.9304C23.0152 11.9685 23.0278 12.0123 23.028 12.057C23.0278 12.1012 23.0153 12.1445 22.9918 12.182C22.9683 12.2194 22.9347 12.2496 22.895 12.269C19.113 14.089 17.345 17.127 17.592 21.382C17.5941 21.4193 17.5855 21.4563 17.5674 21.4889C17.5492 21.5215 17.5221 21.5483 17.4893 21.5661C17.4565 21.5839 17.4194 21.5921 17.3821 21.5896C17.3449 21.5871 17.3091 21.574 17.279 21.552L17.28 21.551ZM13.407 10.66C13.3798 10.6484 13.358 10.627 13.346 10.6L12.111 7.823C12.1015 7.80288 12.0864 7.78589 12.0676 7.77403C12.0488 7.76216 12.0269 7.75592 12.0047 7.75602C11.9824 7.75613 11.9607 7.76258 11.9419 7.77462C11.9232 7.78666 11.9083 7.80379 11.899 7.824L10.65 10.592C10.6382 10.6188 10.6168 10.6402 10.59 10.652L7.813 11.888C7.79258 11.8973 7.7753 11.9123 7.76325 11.9313C7.7512 11.9502 7.7449 11.9722 7.74511 11.9946C7.74532 12.0171 7.75203 12.039 7.76444 12.0577C7.77684 12.0764 7.79441 12.0911 7.815 12.1L10.582 13.348C10.609 13.36 10.632 13.381 10.643 13.408L11.878 16.185C11.8849 16.2003 11.8951 16.214 11.9078 16.225C11.9205 16.2361 11.9355 16.2442 11.9517 16.2489C11.9678 16.2535 11.9848 16.2546 12.0015 16.252C12.0181 16.2495 12.034 16.2433 12.048 16.234C12.0665 16.2217 12.0811 16.2043 12.09 16.184L13.339 13.416C13.3507 13.3891 13.3721 13.3677 13.399 13.356L16.176 12.12C16.1964 12.1107 16.2137 12.0957 16.2257 12.0767C16.2378 12.0578 16.2441 12.0358 16.2439 12.0133C16.2437 11.9909 16.237 11.969 16.2246 11.9503C16.2122 11.9316 16.1946 11.9169 16.174 11.908L13.407 10.66Z" fill="white"/>
</svg>
