<svg width="24" height="24" viewBox="0 0 24 24" fill="none" xmlns="http://www.w3.org/2000/svg">
<rect width="24" height="24" fill="black"/>
<path d="M9.052 3.82399L16.047 3.01799C16.214 2.99799 16.332 3.178 16.248 3.323L13.182 8.68099C13.102 8.82099 13.208 8.995 13.37 8.987L16.565 8.82699C16.604 8.82535 16.6427 8.83487 16.6764 8.85444C16.7102 8.87402 16.7377 8.90283 16.7557 8.9375C16.7736 8.97216 16.7813 9.01123 16.7778 9.05011C16.7744 9.089 16.7598 9.12608 16.736 9.15699L7.584 20.903C7.447 21.079 7.167 20.94 7.224 20.725L9.656 11.588C9.66395 11.5577 9.66484 11.526 9.65862 11.4953C9.65239 11.4646 9.63922 11.4357 9.6201 11.4109C9.60098 11.3861 9.57643 11.366 9.54833 11.3521C9.52023 11.3383 9.48933 11.331 9.458 11.331H6.901C6.86895 11.331 6.83734 11.3235 6.80872 11.309C6.7801 11.2946 6.75526 11.2737 6.7362 11.2479C6.71714 11.2221 6.70439 11.1922 6.69897 11.1607C6.69355 11.1291 6.69562 11.0966 6.705 11.066L8.88 3.968C8.89158 3.92988 8.91401 3.89596 8.94456 3.87038C8.9751 3.84481 9.01244 3.82869 9.052 3.82399ZM4.836 10.114L2.529 12.996C2.50908 13.021 2.49527 13.0502 2.48867 13.0815C2.48208 13.1127 2.48287 13.1451 2.491 13.176L3.414 16.693C3.454 16.844 3.641 16.897 3.754 16.788L4.279 16.28C4.30401 16.2559 4.33472 16.2386 4.36826 16.2296C4.40179 16.2207 4.43705 16.2204 4.47073 16.2288C4.50441 16.2372 4.53541 16.254 4.56082 16.2776C4.58622 16.3013 4.60521 16.331 4.616 16.364L5.48 19.01C5.547 19.215 5.844 19.19 5.877 18.978L6.757 13.188C6.76259 13.1489 6.75675 13.109 6.7402 13.0731C6.72365 13.0372 6.69708 13.0069 6.66369 12.9858C6.63031 12.9646 6.59153 12.9536 6.55202 12.954C6.51251 12.9544 6.47396 12.9662 6.441 12.988L5.555 13.584C5.52439 13.6042 5.4889 13.6159 5.45226 13.6177C5.41561 13.6196 5.37913 13.6115 5.34665 13.5945C5.31416 13.5774 5.28685 13.5519 5.26756 13.5207C5.24827 13.4895 5.23772 13.4537 5.237 13.417L5.2 10.239C5.19911 10.197 5.18536 10.1564 5.16062 10.1225C5.13587 10.0886 5.10132 10.0631 5.06163 10.0495C5.02193 10.0358 4.97901 10.0347 4.93866 10.0462C4.89831 10.0578 4.86248 10.0814 4.836 10.114ZM17.536 11.656L22.002 12.021C22.0439 12.0246 22.0837 12.0411 22.1159 12.0681C22.1481 12.0951 22.1713 12.1314 22.1822 12.172C22.1931 12.2126 22.1913 12.2556 22.1769 12.2951C22.1626 12.3347 22.1364 12.3688 22.102 12.393L18.304 15.044C18.274 15.0651 18.2502 15.0938 18.235 15.1273C18.2199 15.1607 18.2141 15.1975 18.218 15.234C18.222 15.2705 18.2357 15.3052 18.2577 15.3346C18.2797 15.364 18.3091 15.3869 18.343 15.401L20.37 16.243C20.535 16.312 20.54 16.543 20.377 16.618L12.034 20.467C11.835 20.559 11.651 20.316 11.792 20.149L15.288 16.026C15.3089 16.0014 15.3237 15.9721 15.3311 15.9407C15.3386 15.9093 15.3385 15.8766 15.3309 15.8452C15.3233 15.8138 15.3084 15.7846 15.2874 15.7601C15.2663 15.7356 15.2398 15.7163 15.21 15.704L14.074 15.236C14.0424 15.2229 14.0146 15.2022 13.9931 15.1757C13.9716 15.1492 13.957 15.1177 13.9508 15.0841C13.9445 15.0505 13.9467 15.0159 13.9572 14.9834C13.9678 14.9509 13.9862 14.9215 14.011 14.898L17.379 11.712C17.421 11.672 17.479 11.652 17.536 11.656Z" fill="url(#paint0_linear_1_70)"/>
<defs>
<linearGradient id="paint0_linear_1_70" x1="12.3367" y1="3.01646" x2="12.3367" y2="20.983" gradientUnits="userSpaceOnUse">
<stop stop-color="#0072FE"/>
<stop offset="1" stop-color="#29E6FF"/>
</linearGradient>
</defs>
</svg>
