<svg width="24" height="24" viewBox="0 0 24 24" fill="none" xmlns="http://www.w3.org/2000/svg">
<rect width="24" height="24" fill="black"/>
<path fill-rule="evenodd" clip-rule="evenodd" d="M13.673 7.86999C12.468 6.77399 11.545 3.30599 11.083 1.32399C11.038 1.12799 10.762 1.12199 10.711 1.31699C10.211 3.21699 9.294 6.67299 8.293 7.77699C7.276 8.89999 3.716 10.09 1.648 10.636C1.454 10.688 1.449 10.974 1.643 11.028C3.751 11.623 7.376 12.732 8.293 13.674C8.90809 14.2182 9.59297 17.1812 10.2113 19.8561L10.214 19.868C10.426 20.8115 10.6527 21.7516 10.894 22.688C10.9024 22.728 10.9245 22.7638 10.9566 22.7891C10.9886 22.8145 11.0285 22.8279 11.0693 22.8269C11.1102 22.826 11.1494 22.8108 11.1802 22.7839C11.211 22.7571 11.2315 22.7203 11.238 22.68C11.371 22.061 11.506 21.337 11.649 20.567L11.6504 20.5597C12.1851 17.6891 12.8359 14.1952 13.961 13.23C15.064 12.537 16.416 12.177 18.204 11.701L18.2833 11.6798C18.9962 11.4895 19.7792 11.2804 20.644 11.024C20.83 10.968 20.824 10.702 20.634 10.654C17.836 9.94099 14.976 9.05599 13.673 7.86999ZM19.498 15.741C19.111 15.389 18.833 14.324 18.653 13.515C18.6454 13.4727 18.6234 13.4343 18.5909 13.4063C18.5583 13.3783 18.517 13.3624 18.4741 13.3612C18.4311 13.36 18.3891 13.3737 18.355 13.3999C18.3209 13.4261 18.2969 13.4632 18.287 13.505C18.066 14.306 17.735 15.387 17.415 15.741C16.888 16.321 15.533 16.738 14.595 16.976C14.4 17.026 14.399 17.287 14.595 17.331C15.346 17.497 16.317 17.723 17.094 18.145C17.51 18.446 17.968 19.797 18.288 20.825C18.346 21.011 18.611 21.005 18.661 20.816C18.926 19.802 19.297 18.559 19.781 18.144C20.0991 17.8708 20.7591 17.7129 21.5421 17.5257L21.549 17.524C21.8205 17.4603 22.0912 17.3933 22.361 17.323C22.544 17.275 22.547 17.026 22.367 16.968C21.233 16.604 19.961 16.162 19.498 15.741Z" fill="url(#paint0_linear_1_65)"/>
<defs>
<linearGradient id="paint0_linear_1_65" x1="18.6764" y1="1.17383" x2="5.32376" y2="22.827" gradientUnits="userSpaceOnUse">
<stop offset="0.30056" stop-color="#FF1729"/>
<stop offset="0.497242" stop-color="#920BF1"/>
<stop offset="0.70485" stop-color="#2E73FF"/>
</linearGradient>
</defs>
</svg>
