<svg width="24" height="24" viewBox="0 0 24 24" fill="none" xmlns="http://www.w3.org/2000/svg">
<rect width="24" height="24" fill="black"/>
<path d="M13.188 6.563C13.377 4.698 14.686 3.893 15.715 3.432C15.935 3.334 15.942 3.032 15.717 2.948C13.869 2.258 11.622 2.413 10.232 3.082C9.937 3.225 9.482 3.608 8.942 4.154C8.652 4.545 8.385 5.053 8.352 5.957C8.324 6.743 8.609 7.262 8.881 7.755C9.117 8.184 9.341 8.593 9.341 9.14C9.341 10.055 8.652 10.86 7.386 10.65C6.119 10.439 6.343 9.125 6.627 8.047C6.712 7.724 6.465 7.411 5.837 7.997C5.634 8.296 5.437 8.597 5.247 8.9C3.868 11.109 3.137 13.039 3.742 15.625C4.522 18.955 6.361 19.471 7.965 19.922C8.445 20.056 8.902 20.185 9.305 20.381C9.789 20.601 10.165 20.795 10.535 20.984C10.83 21.136 11.121 21.285 11.46 21.445C11.215 19.549 10.895 18.109 10.367 17.655C9.197 16.47 8.147 16.276 7.36 16.17C7.168 16.144 7.162 15.922 7.35 15.874C8.333 15.62 9.773 15.164 10.367 14.51C10.75 14.088 11.398 12.27 11.753 11.173C11.813 10.989 12.111 10.995 12.165 11.181C12.478 12.268 13.066 14 13.525 14.417C14.045 14.891 15.41 15.443 16.655 15.864C16.828 15.922 16.828 16.172 16.655 16.231C15.371 16.664 14.138 17.199 13.698 17.655C13.126 18.249 12.801 19.782 12.601 21.5C12.951 21.447 13.175 21.31 13.51 21.102C13.956 20.827 14.6 20.43 16.007 19.947C18.789 18.993 19.553 17.677 19.849 17.145C20.086 16.719 20.899 14.315 20.184 11.745C19.55 9.466 17.614 7.765 16.259 6.964C16.105 6.873 15.933 7.042 15.995 7.209C16.299 8.019 16.431 9.086 15.278 9.145C14.034 9.209 13.087 7.565 13.188 6.563Z" fill="url(#paint0_linear_1_81)"/>
<defs>
<linearGradient id="paint0_linear_1_81" x1="6.97361" y1="2.49966" x2="17.026" y2="21.5" gradientUnits="userSpaceOnUse">
<stop stop-color="#F41400"/>
<stop offset="1" stop-color="#FF7B13"/>
</linearGradient>
</defs>
</svg>
