<svg width="24" height="24" viewBox="0 0 24 24" fill="none" xmlns="http://www.w3.org/2000/svg">
<rect width="24" height="24" fill="black"/>
<path fill-rule="evenodd" clip-rule="evenodd" d="M11.834 2.09699L9.353 7.13099L3.43 6.77299C3.38766 6.77016 3.34539 6.77947 3.30815 6.79982C3.27091 6.82017 3.24025 6.85073 3.21978 6.8879C3.1993 6.92507 3.18986 6.96731 3.19256 7.00967C3.19525 7.05202 3.20998 7.09272 3.235 7.12699L6.747 11.983L3.245 16.735C3.2196 16.7693 3.20459 16.8102 3.20176 16.8529C3.19894 16.8955 3.20841 16.938 3.22905 16.9754C3.2497 17.0128 3.28065 17.0435 3.31822 17.0638C3.35579 17.0841 3.39841 17.0932 3.441 17.09L9.411 16.674L11.834 21.896C11.914 22.069 12.16 22.069 12.239 21.896L14.638 16.674L20.569 17.091C20.6109 17.0941 20.6529 17.0853 20.6901 17.0655C20.7272 17.0458 20.758 17.016 20.7789 16.9795C20.7998 16.943 20.81 16.9013 20.8082 16.8593C20.8065 16.8173 20.7929 16.7766 20.769 16.742L17.503 11.983L20.689 7.11699C20.7118 7.08233 20.7245 7.04199 20.7256 7.00052C20.7267 6.95906 20.7162 6.9181 20.6953 6.88225C20.6744 6.84641 20.644 6.8171 20.6074 6.79762C20.5707 6.77814 20.5294 6.76927 20.488 6.77199L14.636 7.13199L12.236 2.09999C12.2181 2.06199 12.1898 2.02982 12.1544 2.00719C12.119 1.98456 12.078 1.97238 12.0359 1.97207C11.9939 1.97175 11.9527 1.98331 11.917 2.00542C11.8812 2.02752 11.8525 2.05926 11.834 2.09699ZM14.559 9.99199C14.169 10.614 13.766 11.257 13.786 11.696C13.814 12.292 14.358 13.429 14.877 14.446C14.977 14.641 14.772 14.842 14.583 14.73C14.372 14.606 14.168 14.48 13.973 14.36C13.296 13.944 12.726 13.594 12.313 13.562C11.713 13.517 10.654 14.074 9.785 14.579C9.589 14.693 9.366 14.48 9.471 14.279C9.953 13.358 10.524 12.176 10.447 11.696C10.215 10.913 9.743 10.13 9.35 9.50999C9.225 9.31299 9.439 9.09999 9.64 9.21799C10.454 9.69399 11.607 10.285 12.34 10.249C12.832 10.225 13.888 9.65199 14.603 9.24299C14.787 9.13799 14.973 9.31099 14.866 9.49399C14.771 9.65599 14.666 9.82399 14.559 9.99199Z" fill="url(#paint0_linear_39_25)"/>
<defs>
<linearGradient id="paint0_linear_39_25" x1="12.0003" y1="1.97206" x2="12.0003" y2="22.0257" gradientUnits="userSpaceOnUse">
<stop stop-color="#00CBD2"/>
<stop offset="1" stop-color="#B4FFFD" stop-opacity="0.964706"/>
</linearGradient>
</defs>
</svg>
