<svg width="24" height="24" viewBox="0 0 24 24" fill="none" xmlns="http://www.w3.org/2000/svg">
<rect width="24" height="24" fill="black"/>
<path d="M13.476 9.077L14.81 5.613C14.833 5.55564 14.8722 5.5062 14.9228 5.47069C14.9734 5.43518 15.0332 5.41514 15.095 5.413C15.245 5.407 15.347 5.472 15.398 5.606C15.8868 6.89697 16.3449 8.19933 16.772 9.512C16.7832 9.54446 16.8035 9.57304 16.8304 9.59436C16.8573 9.61568 16.8898 9.62886 16.924 9.63233C16.9581 9.6358 16.9926 9.62942 17.0232 9.61394C17.0539 9.59847 17.0795 9.57455 17.097 9.545L20.904 2.843C20.9305 2.79255 20.9706 2.75048 21.0197 2.72152C21.0688 2.69255 21.125 2.67783 21.182 2.679C21.2269 2.67607 21.272 2.68267 21.3142 2.69835C21.3564 2.71403 21.3949 2.73845 21.427 2.77C21.4575 2.79827 21.4815 2.83289 21.4972 2.87142C21.5129 2.90994 21.52 2.95144 21.518 2.993C21.4696 7.07954 21.4723 11.1665 21.526 15.253C21.546 16.828 21.386 17.953 21.047 18.625C19.856 20.978 17.985 21.548 15.431 21.522C11.2947 21.4853 7.15825 21.4853 3.022 21.522C2.96771 21.5249 2.91359 21.5137 2.86489 21.4895C2.81619 21.4653 2.77455 21.429 2.744 21.384C2.70607 21.3301 2.6836 21.2668 2.679 21.201C2.67283 21.1426 2.68454 21.0837 2.71257 21.0321C2.7406 20.9805 2.78365 20.9386 2.836 20.912L9.296 17.346C9.31987 17.3323 9.33962 17.3125 9.35317 17.2886C9.36672 17.2646 9.37357 17.2375 9.373 17.21C9.37215 17.1831 9.36385 17.157 9.34901 17.1346C9.33418 17.1122 9.3134 17.0943 9.289 17.083C8.04451 16.4837 6.81513 15.8535 5.602 15.193C5.446 15.111 5.429 14.97 5.551 14.77C5.58607 14.7088 5.6417 14.662 5.708 14.638L9.029 13.48C9.175 13.429 9.206 13.339 9.121 13.21L2.547 2.99C2.51436 2.93862 2.49829 2.87845 2.50097 2.81764C2.50365 2.75683 2.52496 2.69831 2.562 2.65C2.683 2.494 2.814 2.46 2.952 2.547C6.38089 4.74407 9.8049 6.94874 13.224 9.161C13.341 9.237 13.424 9.209 13.476 9.077ZM14.506 16.25L12.72 17.379C12.004 17.832 12.068 18.061 12.913 18.066C13.773 18.073 14.673 18.129 15.613 18.234C17.133 18.405 18.394 17.609 18.266 15.99C18.1779 14.8564 18.1112 13.7212 18.066 12.585C18.044 12.012 17.878 11.967 17.569 12.45L16.213 14.565C16.2013 14.5836 16.1859 14.5996 16.1678 14.612C16.1496 14.6244 16.1292 14.6329 16.1076 14.637C16.086 14.6412 16.0638 14.6408 16.0424 14.636C16.0209 14.6312 16.0007 14.622 15.983 14.609C14.7805 13.7483 13.567 12.9029 12.343 12.073C12.3109 12.0495 12.2735 12.0342 12.2341 12.0284C12.1947 12.0227 12.1545 12.0266 12.117 12.04C12.0909 12.0489 12.0672 12.0636 12.0477 12.0831C12.0282 12.1026 12.0135 12.1263 12.0046 12.1524C11.9957 12.1785 11.9929 12.2062 11.9964 12.2336C12 12.2609 12.0098 12.287 12.025 12.31L14.569 15.928C14.659 16.058 14.638 16.164 14.506 16.25Z" fill="white"/>
</svg>
