<svg width="24" height="24" viewBox="0 0 24 24" fill="none" xmlns="http://www.w3.org/2000/svg">
<rect width="24" height="24" fill="black"/>
<path d="M22 12C22 14.6522 20.9464 17.1957 19.0711 19.0711C17.1957 20.9464 14.6522 22 12 22C9.34784 22 6.8043 20.9464 4.92893 19.0711C3.05357 17.1957 2 14.6522 2 12C2 9.34784 3.05357 6.8043 4.92893 4.92893C6.8043 3.05357 9.34784 2 12 2C14.6522 2 17.1957 3.05357 19.0711 4.92893C20.9464 6.8043 22 9.34784 22 12ZM19.273 12C19.2843 11.0377 19.1045 10.0826 18.744 9.19028C18.3836 8.29792 17.8496 7.48597 17.1731 6.80146C16.4965 6.11696 15.6909 5.57351 14.8028 5.2026C13.9148 4.8317 12.9619 4.64071 11.9995 4.64071C11.0371 4.64071 10.0842 4.8317 9.19617 5.2026C8.3081 5.57351 7.50247 6.11696 6.82594 6.80146C6.14941 7.48597 5.61545 8.29792 5.25498 9.19028C4.89452 10.0826 4.71472 11.0377 4.726 12C4.74845 13.9143 5.52464 15.7425 6.88625 17.0883C8.24785 18.434 10.0851 19.1887 11.9995 19.1887C13.9139 19.1887 15.7511 18.434 17.1128 17.0883C18.4744 15.7425 19.2506 13.9143 19.273 12Z" fill="white"/>
<path d="M12.218 7.65L14.888 6.074C14.9602 6.03184 15.0421 6.00926 15.1257 6.00848C15.2092 6.00771 15.2916 6.02877 15.3645 6.06958C15.4374 6.11039 15.4985 6.16954 15.5415 6.24117C15.5846 6.3128 15.6082 6.39444 15.61 6.478L15.66 8.919C15.6615 9.00393 15.6405 9.08774 15.599 9.16188C15.5576 9.23602 15.4972 9.29783 15.424 9.341L12.214 11.239C12.1404 11.2823 12.0565 11.3052 11.971 11.3052C11.8855 11.3052 11.8016 11.2823 11.728 11.239L8.522 9.349C8.44881 9.3057 8.38846 9.24369 8.34716 9.16935C8.30586 9.09501 8.28509 9.01102 8.287 8.926L8.326 6.482C8.32723 6.39857 8.35024 6.31691 8.39274 6.24511C8.43524 6.1733 8.49575 6.11385 8.5683 6.07262C8.64084 6.0314 8.72289 6.00984 8.80633 6.01008C8.88977 6.01032 8.97169 6.03236 9.044 6.074L11.732 7.65C11.8056 7.69335 11.8895 7.71621 11.975 7.71621C12.0605 7.71621 12.1444 7.69335 12.218 7.65ZM8.062 13.952L5.438 12.486C5.35761 12.441 5.29057 12.3755 5.24367 12.2962C5.19677 12.2169 5.17169 12.1267 5.17098 12.0345C5.17027 11.9424 5.19395 11.8517 5.23962 11.7717C5.28529 11.6917 5.35132 11.6252 5.431 11.579L7.501 10.381C7.57994 10.3348 7.66964 10.3102 7.7611 10.3097C7.85255 10.3092 7.94253 10.3327 8.022 10.378L11.182 12.179C11.2618 12.2254 11.3279 12.2922 11.3736 12.3724C11.4193 12.4527 11.4429 12.5436 11.442 12.636L11.414 16.275C11.4135 16.3666 11.3889 16.4565 11.3425 16.5355C11.2962 16.6145 11.2297 16.6799 11.15 16.725L9.084 17.908C9.00428 17.954 8.91381 17.9782 8.82176 17.9779C8.72971 17.9777 8.63935 17.9532 8.55985 17.9068C8.48035 17.8604 8.41453 17.7938 8.36907 17.7137C8.32361 17.6337 8.30013 17.543 8.301 17.451L8.33 14.413C8.33089 14.3192 8.30647 14.2268 8.25931 14.1457C8.21214 14.0646 8.14398 13.9977 8.062 13.952ZM15.596 14.441L15.646 17.429C15.6482 17.5241 15.6251 17.6181 15.5789 17.7013C15.5327 17.7845 15.4652 17.8539 15.3833 17.9022C15.3014 17.9506 15.208 17.9763 15.1129 17.9766C15.0177 17.9769 14.9242 17.9519 14.842 17.904L12.801 16.724C12.7201 16.6773 12.6529 16.6103 12.6059 16.5296C12.5588 16.4489 12.5337 16.3574 12.533 16.264L12.519 12.618C12.519 12.5226 12.5445 12.4289 12.5929 12.3466C12.6412 12.2643 12.7107 12.1965 12.794 12.15L15.914 10.388C15.9954 10.3423 16.0872 10.3186 16.1805 10.3193C16.2738 10.32 16.3653 10.3451 16.446 10.392L18.48 11.564C18.5621 11.6113 18.6303 11.6795 18.6775 11.7616C18.7248 11.8437 18.7494 11.9369 18.749 12.0317C18.7486 12.1264 18.7231 12.2194 18.6752 12.3011C18.6272 12.3828 18.5585 12.4504 18.476 12.497L15.867 13.962C15.7827 14.01 15.7129 14.0801 15.6652 14.1646C15.6175 14.2491 15.5936 14.345 15.596 14.442V14.441Z" fill="white"/>
</svg>
