<svg width="24" height="24" viewBox="0 0 24 24" fill="none" xmlns="http://www.w3.org/2000/svg">
<rect width="24" height="24" fill="black"/>
<path d="M16.403 2.335V16.206H1.8L6.91 11.826L2.53 3.065L12.751 6.715L16.401 2.335H16.403Z" fill="white"/>
<path d="M17.99 10.69C18.922 11.6182 19.4543 12.8739 19.4731 14.1891C19.4919 15.5044 18.9958 16.7748 18.0907 17.7293C17.1856 18.6837 15.9432 19.2465 14.6289 19.2975C13.3145 19.3484 12.0323 18.8835 11.056 18.002H6.96C7.54513 19.1188 8.38357 20.0831 9.40822 20.8177C10.4329 21.5523 11.6153 22.0369 12.8608 22.2326C14.1063 22.4283 15.3803 22.3297 16.5809 21.9447C17.7814 21.5597 18.8752 20.899 19.7746 20.0155C20.674 19.132 21.3541 18.0502 21.7605 16.8566C22.1668 15.6631 22.2881 14.3911 22.1147 13.1423C21.9412 11.8935 21.4778 10.7026 20.7616 9.66505C20.0454 8.62746 19.0962 7.77195 17.99 7.167V10.688V10.69Z" fill="white"/>
</svg>
