<svg width="24" height="24" viewBox="0 0 24 24" fill="none" xmlns="http://www.w3.org/2000/svg">
<rect width="24" height="24" fill="black"/>
<path d="M10.935 17.4608C11.9623 17.4608 16.6614 20.4827 17.2068 19.9332C17.7522 19.3838 12.8438 14.1643 12.0257 14.1643C11.2077 14.1643 9.67941 14.5477 9.29884 14.1643C8.75346 13.6148 7.6627 8.67003 7.93539 7.84585C8.75346 7.57118 13.6619 8.67001 14.2072 9.21944C14.5878 9.60283 14.2073 11.6918 14.2072 12.516C14.2072 13.3401 19.3883 18.0102 19.9337 17.4608C20.4791 16.9114 17.4795 11.9026 17.4795 10.8677C17.4795 9.83278 19.661 9.21945 19.661 7.84589C19.661 5.58002 5.48118 3.17578 4.39043 4.27463C3.04984 5.71381 5.41352 19.9332 7.6627 19.9332C8.69 19.9332 9.90768 17.4608 10.935 17.4608Z" fill="white"/>
</svg>
