<svg width="24" height="24" viewBox="0 0 24 24" fill="none" xmlns="http://www.w3.org/2000/svg">
<rect width="24" height="24" fill="black"/>
<path fill-rule="evenodd" clip-rule="evenodd" d="M15.334 2.286C15.41 3.373 15.53 5.094 15.994 5.701C16.944 6.943 19.095 6.839 21.904 6.4C22.115 6.367 22.247 6.622 22.098 6.774C20.921 7.964 19.062 9.96 19.164 11.144C19.251 12.162 21.044 14.208 22.103 15.254C22.269 15.418 22.093 15.876 21.859 15.86C21.51 15.838 21.171 15.806 20.841 15.776C19.205 15.626 17.785 15.495 16.375 16.506C15.071 17.441 14.749 19.152 14.457 20.703C14.38 21.108 14.307 21.501 14.217 21.867C14.171 22.057 13.922 22.081 13.827 21.911C12.713 19.919 11.24 18.301 9.598 18.136C7.959 17.972 6.186 19.13 5.118 19.826C4.99726 19.9056 4.87592 19.9842 4.754 20.062C4.594 20.163 4.439 20.022 4.517 19.851C4.578 19.718 4.647 19.574 4.719 19.419C5.394 17.989 6.473 15.706 5.587 14.096C5.142 13.287 3.001 12.53 1.987 12.216C1.799 12.158 1.774 11.913 1.956 11.836C2.123 11.766 2.316 11.688 2.528 11.603C3.632 11.157 5.206 10.522 5.801 9.868C6.771 8.804 7.108 7.483 6.367 4.708C6.323 4.542 6.477 4.39 6.637 4.454C6.974 4.587 7.284 4.754 7.597 4.921C8.318 5.309 9.049 5.701 10.141 5.701C11.931 5.701 13.594 3.697 14.728 2.33L14.961 2.05C14.987 2.01739 15.0224 1.9935 15.0624 1.98153C15.1024 1.96956 15.1451 1.97008 15.1847 1.98301C15.2244 1.99595 15.2592 2.02069 15.2844 2.05392C15.3097 2.08716 15.3242 2.1273 15.326 2.169L15.334 2.286ZM13.707 6.356C13.752 6.806 13.97 7.908 14.262 8.289C14.787 8.976 15.9 8.948 17.509 8.679C17.416 8.772 17.307 8.869 17.189 8.971C16.629 9.461 15.887 10.111 15.887 11.372C15.887 12.429 17.082 13.458 17.272 13.548C17.0296 13.5394 16.7875 13.524 16.546 13.502C15.721 13.436 15.093 13.385 14.262 13.982C13.419 14.586 13.291 15.259 13.105 16.229L13.048 16.526C12.205 15.374 11.685 14.896 10.779 14.806C9.939 14.722 9.207 15.201 8.746 15.503C8.63253 15.584 8.51244 15.6552 8.387 15.716L8.455 15.535C8.701 14.887 9.149 13.705 8.635 12.771C8.345 12.245 6.874 11.652 6.744 11.622C6.86937 11.552 6.99676 11.4856 7.126 11.423C7.63 11.17 8.422 10.772 8.752 10.41C9.271 9.84 9.393 9.084 9.152 7.736L9.222 7.757C9.87 7.947 10.401 8.104 11.259 8.085C12.22 8.063 13.001 7.166 13.559 6.526C13.609 6.467 13.659 6.411 13.707 6.356Z" fill="url(#paint0_linear_1_19)"/>
<defs>
<linearGradient id="paint0_linear_1_19" x1="1.97397" y1="1.97292" x2="22.0263" y2="22.0252" gradientUnits="userSpaceOnUse">
<stop offset="0.240242" stop-color="#F49300"/>
<stop offset="0.818126" stop-color="#FFE600"/>
</linearGradient>
</defs>
</svg>
