<svg width="24" height="24" viewBox="0 0 24 24" fill="none" xmlns="http://www.w3.org/2000/svg">
<rect width="24" height="24" fill="black"/>
<path d="M15.409 8.235L22.181 11.546C22.2311 11.5702 22.2734 11.6081 22.3029 11.6552C22.3325 11.7023 22.3482 11.7569 22.3482 11.8125C22.3482 11.8681 22.3325 11.9227 22.3029 11.9698C22.2734 12.0169 22.2311 12.0548 22.181 12.079L15.408 15.389C15.3495 15.4182 15.3024 15.4661 15.274 15.525L11.962 22.297C11.9377 22.3468 11.8998 22.3888 11.8528 22.4182C11.8058 22.4476 11.7514 22.4632 11.696 22.4632C11.6405 22.4632 11.5862 22.4476 11.5392 22.4182C11.4922 22.3888 11.4543 22.3468 11.43 22.297L8.118 15.525C8.08915 15.4663 8.04167 15.4189 7.983 15.39L1.211 12.079C1.1609 12.0548 1.11864 12.0169 1.08907 11.9698C1.0595 11.9227 1.04382 11.8681 1.04382 11.8125C1.04382 11.7569 1.0595 11.7023 1.08907 11.6552C1.11864 11.6081 1.1609 11.5702 1.211 11.546L7.983 8.235C8.04167 8.20615 8.08915 8.15868 8.118 8.1L11.43 1.327C11.4546 1.27748 11.4925 1.23581 11.5395 1.20668C11.5865 1.17754 11.6407 1.16211 11.696 1.16211C11.7513 1.16211 11.8055 1.17754 11.8525 1.20668C11.8995 1.23581 11.9374 1.27748 11.962 1.327L15.274 8.1C15.3029 8.15868 15.3503 8.20615 15.409 8.235ZM10.192 10.909C9.70625 11.1775 9.19509 11.3973 8.666 11.565C8.62912 11.5757 8.59659 11.5979 8.57306 11.6282C8.54953 11.6586 8.53621 11.6956 8.535 11.734C8.52993 11.7909 8.53744 11.8483 8.557 11.902C8.57464 11.9516 8.60391 11.9963 8.64235 12.0323C8.6808 12.0684 8.72731 12.0946 8.778 12.109C9.198 12.231 9.616 12.399 10.031 12.615C10.848 13.035 11.152 13.999 11.43 14.797C11.565 15.185 11.721 15.194 11.899 14.824C12.277 14.017 12.442 13.174 13.294 12.667C13.726 12.407 14.184 12.211 14.67 12.079C14.76 12.054 14.805 11.995 14.805 11.902V11.73C14.8049 11.6917 14.7924 11.6546 14.7693 11.6241C14.7462 11.5936 14.7138 11.5714 14.677 11.561C14.1746 11.4039 13.6897 11.1955 13.23 10.939C12.506 10.534 12.24 9.547 11.914 8.824C11.746 8.454 11.589 8.459 11.441 8.839C11.171 9.532 10.871 10.526 10.192 10.909ZM18.308 5.617L17.168 5.689C16.863 5.706 16.712 5.562 16.714 5.257L16.726 3.742C16.728 3.512 16.843 3.401 17.071 3.409L18.327 3.442C18.472 3.447 18.544 3.379 18.544 3.236L18.555 1.755C18.558 1.55 18.663 1.447 18.871 1.447L20.363 1.459C20.4478 1.45899 20.5292 1.49233 20.5896 1.55183C20.6501 1.61133 20.6847 1.6922 20.686 1.777L20.704 3.165C20.707 3.347 20.799 3.437 20.982 3.435L22.197 3.427C22.399 3.425 22.499 3.525 22.497 3.727L22.489 5.329C22.4889 5.40507 22.4617 5.47863 22.4122 5.53639C22.3627 5.59415 22.2942 5.63231 22.219 5.644C21.8403 5.70112 21.4546 5.69198 21.079 5.617C20.9988 5.60183 20.9159 5.61435 20.8437 5.6525C20.7716 5.69066 20.7146 5.75218 20.682 5.827C20.6612 5.87695 20.6523 5.93103 20.656 5.985L20.723 7.106C20.7266 7.16802 20.7174 7.23012 20.6959 7.28844C20.6745 7.34676 20.6414 7.40007 20.5986 7.44507C20.5557 7.49006 20.5041 7.52579 20.4469 7.55003C20.3897 7.57427 20.3281 7.58651 20.266 7.586L18.878 7.575C18.663 7.572 18.555 7.465 18.555 7.252L18.548 5.839C18.5486 5.79259 18.5344 5.74719 18.5074 5.70942C18.4804 5.67165 18.4421 5.64347 18.398 5.629C18.3691 5.61903 18.3385 5.61495 18.308 5.617Z" fill="white"/>
</svg>
