<svg width="24" height="24" viewBox="0 0 24 24" fill="none" xmlns="http://www.w3.org/2000/svg">
<rect width="24" height="24" fill="black"/>
<path d="M10.7109 1.31738C10.7619 1.12238 11.038 1.12821 11.083 1.32421C11.545 3.30623 12.4679 6.77412 13.6728 7.87011C14.9758 9.05609 17.8358 9.9413 20.6338 10.6543C20.8238 10.7023 20.8295 10.9684 20.6435 11.0244C19.7468 11.2903 18.9379 11.5052 18.2041 11.7012C16.4161 12.1772 15.0639 12.5375 13.9609 13.2305C12.8351 14.1968 12.1843 17.6956 11.6494 20.5674C11.5064 21.3371 11.3712 22.0608 11.2383 22.6797C11.2317 22.72 11.2114 22.7573 11.1806 22.7842C11.1498 22.811 11.1102 22.8262 11.0693 22.8271C11.0286 22.8281 10.989 22.8143 10.957 22.7891C10.9251 22.7638 10.902 22.7283 10.8935 22.6885C10.6522 21.7521 10.4258 20.8116 10.2138 19.8682C9.59484 17.1902 8.90894 14.2188 8.29294 13.6738C7.37577 12.7318 3.75047 11.6233 1.64255 11.0283C1.44889 10.9741 1.45452 10.6877 1.64841 10.6357C3.71634 10.0897 7.27575 8.90019 8.29294 7.77734C9.29388 6.67341 10.2109 3.21746 10.7109 1.31738ZM18.4736 13.3613C18.5165 13.3625 18.5582 13.3783 18.5908 13.4062C18.6233 13.4342 18.6456 13.4725 18.6533 13.5146C18.8333 14.3236 19.111 15.3892 19.498 15.7412C19.9611 16.1622 21.2333 16.6038 22.3672 16.9678C22.547 17.0258 22.5441 17.2751 22.3613 17.3232C22.0915 17.3935 21.8203 17.4607 21.5488 17.5244C20.7632 17.7123 20.1003 17.8698 19.7812 18.1436C19.2972 18.5585 18.9261 19.8024 18.6611 20.8164C18.6109 21.005 18.3462 21.0109 18.2881 20.8252C17.9681 19.7972 17.5097 18.4455 17.0937 18.1445C16.3168 17.7227 15.3456 17.497 14.5947 17.3311C14.399 17.2869 14.4 17.0257 14.5947 16.9756C15.5326 16.7376 16.8879 16.3212 17.415 15.7412C17.735 15.3872 18.0661 14.3059 18.2871 13.5049C18.297 13.4631 18.3214 13.4256 18.3554 13.3994C18.3893 13.3736 18.431 13.3603 18.4736 13.3613Z" fill="url(#paint0_linear_39_27)"/>
<defs>
<linearGradient id="paint0_linear_39_27" x1="18.6765" y1="1.17414" x2="5.3239" y2="22.8273" gradientUnits="userSpaceOnUse">
<stop offset="0.30056" stop-color="#FF1729"/>
<stop offset="0.497242" stop-color="#920BF1"/>
<stop offset="0.70485" stop-color="#2E73FF"/>
</linearGradient>
</defs>
</svg>
