<svg width="24" height="24" viewBox="0 0 24 24" fill="none" xmlns="http://www.w3.org/2000/svg">
<rect width="24" height="24" fill="black"/>
<path d="M19.473 17.545C17.71 21.073 14.843 22.633 10.873 22.226C8.453 21.978 6.113 20.25 4.964 18.113C3.812 15.972 3.622 13.769 4.396 11.505C4.766 10.423 5.628 9.077 6.983 7.465C8.47038 5.69324 9.92464 3.89393 11.345 2.068C11.4736 1.90116 11.6556 1.78352 11.8606 1.73474C12.0655 1.68596 12.281 1.709 12.471 1.8C12.598 1.86 12.709 1.948 12.797 2.057C14.515 4.203 16.312 6.434 18.187 8.751C20.247 11.291 21.006 14.479 19.473 17.545ZM12.772 11.625C13.734 10.71 14.795 10.55 16.097 10.785C16.1506 10.7964 16.2062 10.7953 16.2593 10.7815C16.3124 10.7678 16.3616 10.742 16.403 10.706C16.516 10.611 16.525 10.509 16.427 10.397L12.548 5.965C12.4644 5.86829 12.3508 5.80242 12.2253 5.77794C12.0999 5.75347 11.9698 5.7718 11.856 5.83C11.7801 5.86844 11.7135 5.92305 11.661 5.99L6.96 11.951C6.884 12.048 6.885 12.146 6.963 12.245C7.384 12.759 7.835 13.173 8.315 13.488C10.143 14.676 11.637 12.707 12.773 11.624L12.772 11.625Z" fill="white"/>
</svg>
