<svg width="24" height="24" viewBox="0 0 24 24" fill="none" xmlns="http://www.w3.org/2000/svg">
<g clip-path="url(#clip0_39_3)">
<path d="M12 24C18.6274 24 24 18.6274 24 12C24 5.37258 18.6274 0 12 0C5.37258 0 0 5.37258 0 12C0 18.6274 5.37258 24 12 24Z" fill="black"/>
<path d="M12 14.365C12.6272 14.365 13.2288 14.1158 13.6723 13.6723C14.1158 13.2288 14.365 12.6272 14.365 12C14.365 11.3728 14.1158 10.7712 13.6723 10.3277C13.2288 9.88417 12.6272 9.635 12 9.635C11.3728 9.635 10.7712 9.88417 10.3277 10.3277C9.88417 10.7712 9.635 11.3728 9.635 12C9.635 12.6272 9.88417 13.2288 10.3277 13.6723C10.7712 14.1158 11.3728 14.365 12 14.365ZM14.47 5.905C14.47 7.211 13.557 8.275 12.21 8.381C10.864 8.487 9.766 7.211 9.766 5.905C9.766 5.905 10.461 5.41 12.21 5.41C13.584 5.41 14.47 5.905 14.47 5.905ZM12.024 15.839C10.678 15.944 9.766 17.009 9.766 18.315C9.766 18.315 10.65 18.809 12.024 18.81C13.774 18.81 14.469 18.315 14.469 18.315C14.469 17.009 13.371 15.733 12.024 15.839ZM7.848 7.101C8.979 7.754 9.445 9.076 8.863 10.296C8.281 11.515 6.627 11.828 5.496 11.175C5.496 11.175 5.416 10.325 6.291 8.81C6.978 7.62 7.848 7.101 7.848 7.101ZM15.373 13.964C14.743 15.159 15.154 16.498 16.258 17.197C16.258 17.197 17.148 16.714 17.883 15.553C18.819 14.075 18.773 13.223 18.773 13.223C17.669 12.524 16.003 12.769 15.373 13.964ZM5.61 13.338C6.74 12.685 8.119 12.942 8.884 14.055C9.649 15.169 9.093 16.758 7.961 17.411C7.961 17.411 7.185 17.055 6.311 15.541C5.624 14.351 5.61 13.337 5.61 13.337V13.338ZM15.316 10.252C16.035 11.395 17.401 11.709 18.558 11.102C18.558 11.102 18.584 10.089 17.946 8.872C17.134 7.323 16.373 6.936 16.373 6.936C15.217 7.543 14.596 9.108 15.316 10.252Z" fill="white"/>
<path fill-rule="evenodd" clip-rule="evenodd" d="M22.105 12C22.105 17.58 17.581 22.105 12 22.105C6.42 22.105 1.896 17.58 1.896 12C1.896 6.42 6.419 1.896 12 1.896C17.58 1.896 22.105 6.419 22.105 12ZM20.331 12C20.331 14.2095 19.4533 16.3285 17.8909 17.8909C16.3285 19.4533 14.2095 20.331 12 20.331C9.79048 20.331 7.67146 19.4533 6.10909 17.8909C4.54673 16.3285 3.669 14.2095 3.669 12C3.669 9.79048 4.54673 7.67146 6.10909 6.10909C7.67146 4.54673 9.79048 3.669 12 3.669C14.2095 3.669 16.3285 4.54673 17.8909 6.10909C19.4533 7.67146 20.331 9.79048 20.331 12Z" fill="white"/>
</g>
<defs>
<clipPath id="clip0_39_3">
<rect width="24" height="24" fill="white"/>
</clipPath>
</defs>
</svg>
