<svg width="24" height="24" viewBox="0 0 24 24" fill="none" xmlns="http://www.w3.org/2000/svg">
<g clip-path="url(#clip0_39_13)">
<path d="M12 24C18.6274 24 24 18.6274 24 12C24 5.37258 18.6274 0 12 0C5.37258 0 0 5.37258 0 12C0 18.6274 5.37258 24 12 24Z" fill="black"/>
<path d="M12.065 2.112C6.542 2.112 2.065 6.589 2.065 12.112C2.06337 13.5574 2.37579 14.9859 2.98062 16.2986C3.58546 17.6114 4.46828 18.7771 5.568 19.715C9.18 20.158 10.915 18.335 10.723 18.25C7.554 16.847 5.258 14.421 5.258 11.174C5.258 6.526 9.692 2.758 15.161 2.758C15.319 2.758 15.476 2.761 15.631 2.767C14.4923 2.3327 13.2837 2.11071 12.065 2.112Z" fill="white"/>
<path d="M12 22C17.523 22 22 17.523 22 12C22.0015 10.5548 21.689 9.12649 21.0842 7.81392C20.4793 6.50136 19.5966 5.33584 18.497 4.398C14.885 3.954 13.149 5.777 13.342 5.862C16.51 7.266 18.806 9.692 18.806 12.938C18.806 17.587 14.372 21.355 8.903 21.355C8.746 21.355 8.589 21.352 8.433 21.345C9.572 21.7794 10.781 22.0014 12 22Z" fill="white"/>
<path d="M12.161 8.006C12.161 9.06793 12.5828 10.0864 13.3337 10.8373C14.0846 11.5882 15.1031 12.01 16.165 12.01C16.13 12.01 16.165 12.268 16.165 12.268C15.1032 12.268 14.085 12.6897 13.3341 13.4404C12.5832 14.1911 12.1613 15.2092 12.161 16.271H12.005C12.005 15.2093 11.5833 14.1912 10.8325 13.4405C10.0818 12.6897 9.06366 12.268 8.002 12.268V12.01C8.52776 12.01 9.04838 11.9064 9.53411 11.7052C10.0198 11.504 10.4612 11.209 10.8329 10.8372C11.2046 10.4654 11.4995 10.024 11.7006 9.53819C11.9017 9.05241 12.0051 8.53177 12.005 8.006H12.161Z" fill="white"/>
</g>
<defs>
<clipPath id="clip0_39_13">
<rect width="24" height="24" fill="white"/>
</clipPath>
</defs>
</svg>
