<svg width="24" height="24" viewBox="0 0 24 24" fill="none" xmlns="http://www.w3.org/2000/svg">
<g clip-path="url(#clip0_39_18)">
<path d="M12 24C18.6274 24 24 18.6274 24 12C24 5.37258 18.6274 0 12 0C5.37258 0 0 5.37258 0 12C0 18.6274 5.37258 24 12 24Z" fill="black"/>
<path fill-rule="evenodd" clip-rule="evenodd" d="M21.903 12.021C21.903 17.491 17.47 21.925 12 21.925C6.53 21.925 2.097 17.491 2.097 12.021C2.097 6.552 6.531 2.118 12 2.118C17.47 2.118 21.903 6.552 21.903 12.021ZM14.046 19.869C13.378 20.0431 12.6904 20.1308 12 20.13C11.3713 20.1305 10.7448 20.0576 10.133 19.913L12.12 17.956L14.046 19.869ZM16.076 19.026L12.12 15.07L8.13 19.143C7.58428 18.8439 7.07491 18.4829 6.612 18.067L12.122 12.637L17.44 18.019C17.023 18.401 16.566 18.739 16.076 19.026ZM4.376 14.7C4.608 15.375 4.929 16.009 5.323 16.59L12.122 9.752L18.76 16.465C19.164 15.845 19.485 15.168 19.707 14.447L12.122 7.25L4.376 14.7ZM3.943 12.414C3.89517 11.3404 4.06237 10.2681 4.43479 9.26006C4.80721 8.25202 5.37733 7.32856 6.11166 6.54395C6.846 5.75935 7.72973 5.12941 8.71095 4.69115C9.69216 4.25289 10.7511 4.01515 11.8255 3.99189C12.8999 3.96863 13.9681 4.16033 14.9673 4.55572C15.9666 4.9511 16.8767 5.54221 17.6443 6.2943C18.4119 7.0464 19.0215 7.94431 19.4372 8.9353C19.8529 9.92629 20.0663 10.9904 20.065 12.065V12.075L12.122 4.513L3.942 12.414H3.943Z" fill="white"/>
</g>
<defs>
<clipPath id="clip0_39_18">
<rect width="24" height="24" fill="white"/>
</clipPath>
</defs>
</svg>
