<svg width="24" height="24" viewBox="0 0 24 24" fill="none" xmlns="http://www.w3.org/2000/svg">
<g clip-path="url(#clip0_39_10)">
<path d="M12 24C18.6274 24 24 18.6274 24 12C24 5.37258 18.6274 0 12 0C5.37258 0 0 5.37258 0 12C0 18.6274 5.37258 24 12 24Z" fill="black"/>
<path fill-rule="evenodd" clip-rule="evenodd" d="M21.788 12C21.788 17.406 17.406 21.788 12 21.788C6.594 21.788 2.212 17.406 2.212 12C2.212 6.594 6.594 2.212 12 2.212C17.406 2.212 21.788 6.594 21.788 12ZM20.076 12.018C20.076 13.1214 19.8499 14.2132 19.4116 15.2258C18.9733 16.2385 18.3322 17.1506 17.5277 17.9058C16.7233 18.6611 15.7726 19.2435 14.7343 19.6171C13.696 19.9907 12.5922 20.1475 11.491 20.078L16.479 14.764C16.5322 14.707 16.5676 14.6358 16.5808 14.559C16.5941 14.4822 16.5846 14.4033 16.5536 14.3318C16.5226 14.2603 16.4714 14.1994 16.4062 14.1567C16.3411 14.1139 16.2649 14.0911 16.187 14.091H13.505C13.3156 14.091 13.134 14.0158 13.0001 13.8819C12.8662 13.748 12.791 13.5664 12.791 13.377V11.302H20.045C20.065 11.538 20.076 11.777 20.076 12.018ZM19.64 9.393C19.1503 7.97225 18.2746 6.71597 17.111 5.765V9.393H19.64ZM15.227 4.613C14.4533 4.2752 13.6312 4.06157 12.791 3.98V9.393H15.227V4.613ZM10.932 4.013C10.0394 4.1306 9.17293 4.39767 8.369 4.803V11.151H10.932V4.013ZM6.51 6.094C5.07986 7.41679 4.1775 9.21299 3.97 11.15H6.51V6.094ZM4.004 13.16H10.932C10.912 14.406 12.162 15.538 12.791 15.948C11.5856 17.1626 10.377 18.374 9.165 19.582C7.80814 19.0724 6.6132 18.2074 5.70525 17.0776C4.7973 15.9478 4.20972 14.5947 4.004 13.16Z" fill="white"/>
</g>
<defs>
<clipPath id="clip0_39_10">
<rect width="24" height="24" fill="white"/>
</clipPath>
</defs>
</svg>
