<svg width="24" height="24" viewBox="0 0 24 24" fill="none" xmlns="http://www.w3.org/2000/svg">
<g clip-path="url(#clip0_39_7)">
<path d="M12 24C18.6274 24 24 18.6274 24 12C24 5.37258 18.6274 0 12 0C5.37258 0 0 5.37258 0 12C0 18.6274 5.37258 24 12 24Z" fill="black"/>
<path d="M8.948 8.917C9.265 7.474 9.764 4.877 10.265 2.188C8.23035 2.55061 6.35858 3.5363 4.90844 5.00884C3.45829 6.48138 2.50139 8.36803 2.17 10.408L8.948 8.917ZM15.117 8.917L13.787 2.194C15.7954 2.55943 17.6433 3.5322 19.0814 4.98102C20.5195 6.42983 21.4785 8.28495 21.829 10.296L15.117 8.917ZM15.117 15.126L21.813 13.802C21.4469 15.7892 20.486 17.6184 19.0575 19.0475C17.6289 20.4766 15.8001 21.4382 13.813 21.805L15.117 15.125V15.126ZM8.948 15.126L10.184 21.801C8.18308 21.4271 6.34446 20.4499 4.91497 19.0008C3.48548 17.5516 2.53356 15.6998 2.187 13.694L8.947 15.126H8.948ZM11.814 7.765L10.604 10.683L7.733 11.735C7.69416 11.7491 7.66064 11.7749 7.63706 11.8089C7.61348 11.8428 7.601 11.8832 7.60133 11.9246C7.60166 11.9659 7.61478 12.0061 7.6389 12.0397C7.66301 12.0732 7.69694 12.0985 7.736 12.112L10.603 13.1L11.812 16.202C11.8266 16.2396 11.8522 16.272 11.8855 16.2948C11.9188 16.3176 11.9582 16.3298 11.9985 16.3298C12.0388 16.3298 12.0782 16.3176 12.1115 16.2948C12.1448 16.272 12.1704 16.2396 12.185 16.202L13.38 13.1L16.077 12.11C16.1151 12.096 16.1481 12.0708 16.1715 12.0376C16.1949 12.0045 16.2077 11.965 16.2081 11.9244C16.2085 11.8838 16.1966 11.844 16.1739 11.8104C16.1512 11.7767 16.1188 11.7508 16.081 11.736L13.381 10.683L12.183 7.765C12.1679 7.72832 12.1423 7.69694 12.1094 7.67486C12.0764 7.65278 12.0377 7.64099 11.998 7.64099C11.9583 7.64099 11.9196 7.65278 11.8866 7.67486C11.8537 7.69694 11.8281 7.72832 11.813 7.765H11.814Z" fill="white"/>
</g>
<defs>
<clipPath id="clip0_39_7">
<rect width="24" height="24" fill="white"/>
</clipPath>
</defs>
</svg>
