<svg width="24" height="24" viewBox="0 0 24 24" fill="none" xmlns="http://www.w3.org/2000/svg">
<g clip-path="url(#clip0_39_21)">
<path d="M12 24C18.6274 24 24 18.6274 24 12C24 5.37258 18.6274 0 12 0C5.37258 0 0 5.37258 0 12C0 18.6274 5.37258 24 12 24Z" fill="black"/>
<path fill-rule="evenodd" clip-rule="evenodd" d="M12 21.9C17.468 21.9 21.9 17.468 21.9 12C21.9 6.532 17.469 2.1 12 2.1C6.531 2.1 2.1 6.531 2.1 12C2.1 17.469 6.532 21.9 12 21.9ZM8.729 9.004V10.645C8.7289 10.6829 8.7396 10.7201 8.75985 10.7522C8.78009 10.7843 8.80905 10.81 8.84333 10.8262C8.87762 10.8425 8.91582 10.8486 8.95347 10.844C8.99113 10.8394 9.02669 10.8241 9.056 10.8L12.578 7.9C12.6014 7.88083 12.6201 7.85661 12.6328 7.82917C12.6454 7.80172 12.6517 7.77176 12.6511 7.74154C12.6505 7.71132 12.6431 7.68163 12.6294 7.65469C12.6157 7.62775 12.5961 7.60426 12.572 7.586L9.05 4.922C9.02029 4.89942 8.98486 4.88561 8.94771 4.88212C8.91056 4.87863 8.87317 4.8856 8.83978 4.90225C8.80638 4.91889 8.77831 4.94455 8.75873 4.97631C8.73916 5.00808 8.72886 5.04469 8.729 5.082V6.502H6.258C5.568 6.502 5.008 7.062 5.008 7.752V15.635C5.008 17.211 6.852 18.065 8.054 17.045L16.789 9.637V14.892H15.216V13.435C15.2158 13.3979 15.2053 13.3617 15.1857 13.3302C15.1661 13.2988 15.1382 13.2734 15.105 13.2569C15.0718 13.2404 15.0347 13.2335 14.9978 13.2368C14.9609 13.2402 14.9256 13.2538 14.896 13.276L11.373 15.94C11.3489 15.9583 11.3293 15.9817 11.3156 16.0087C11.3019 16.0356 11.2945 16.0653 11.2939 16.0955C11.2933 16.1258 11.2996 16.1557 11.3122 16.1832C11.3249 16.2106 11.3436 16.2348 11.367 16.254L14.889 19.152C14.9182 19.176 14.9537 19.1913 14.9913 19.196C15.0288 19.2006 15.067 19.1946 15.1012 19.1784C15.1355 19.1623 15.1644 19.1368 15.1847 19.1048C15.2051 19.0729 15.2159 19.0359 15.216 18.998V17.392H18.039C18.729 17.392 19.289 16.832 19.289 16.142V8.233C19.289 6.657 17.444 5.803 16.242 6.823L7.508 14.23V9.003H8.728L8.729 9.004Z" fill="white"/>
</g>
<defs>
<clipPath id="clip0_39_21">
<rect width="24" height="24" fill="white"/>
</clipPath>
</defs>
</svg>
